<svg width="188" height="26" viewBox="0 0 188 26" fill="none" xmlns="http://www.w3.org/2000/svg">
<path d="M0.703125 19.4453L5.16797 17.8633C5.16797 18.4492 5.33203 18.9648 5.66016 19.4102C5.98828 19.8555 6.31641 20.1484 6.64453 20.2891L7.13672 20.5352V25.1055C5.14453 25.1055 3.44531 24.2383 2.03906 22.5039C1.17188 21.4023 0.726562 20.3828 0.703125 19.4453ZM0.984375 7.14062C0.984375 4.5625 2.08594 2.62891 4.28906 1.33984C5.29688 0.730469 6.24609 0.414062 7.13672 0.390625V5.03125C6.55078 5.19531 6.11719 5.61719 5.83594 6.29688C5.74219 6.50781 5.69531 6.73047 5.69531 6.96484C5.69531 7.92578 6.41016 8.74609 7.83984 9.42578C8.14453 9.56641 8.63672 9.77734 9.31641 10.0586C10.4414 10.5039 11.2383 10.8672 11.707 11.1484C13.6055 12.2734 14.8711 13.4219 15.5039 14.5938C15.9727 15.5078 16.207 16.5273 16.207 17.6523C16.207 19.7852 15.3984 21.6133 13.7812 23.1367C12.3984 24.4492 10.8281 25.1055 9.07031 25.1055V20.5352C9.98438 20.418 10.6289 19.9375 11.0039 19.0938C11.168 18.7188 11.25 18.3086 11.25 17.8633C11.25 16.668 10.3594 15.6836 8.57812 14.9102C8.25 14.7695 7.73438 14.5703 7.03125 14.3125C6.21094 14.0312 5.63672 13.8086 5.30859 13.6445C3.29297 12.6836 2.00391 11.4414 1.44141 9.91797C1.13672 9.09766 0.984375 8.17188 0.984375 7.14062ZM9.07031 5.03125V0.390625C11.0391 0.390625 12.6914 1.22266 14.0273 2.88672C14.8008 3.87109 15.1992 4.76172 15.2227 5.55859L10.6523 7.07031C10.6523 6.08594 10.1719 5.41797 9.21094 5.06641C9.11719 5.04297 9.07031 5.03125 9.07031 5.03125ZM18.3867 25V0.390625H31.1836V5.3125H23.3438V10.3047H27.8789V15.2617H23.3438V20.043H31.1836V25H18.3867ZM33.9961 25V0.390625H38.9531V25H33.9961ZM40.3594 13.0117L44.1211 0.390625H49.0078L45.2812 13.0117L49.1484 25H44.2969L40.3594 13.0117ZM50.8008 25L55.3359 4.53906H55.8633L57.9727 14.3828L55.6523 25H50.8008ZM58.2891 22.0117L59.3438 17.1602H60.6094L56.8828 0.390625H61.7695L67.5703 25H62.6484L61.9453 22.0117H58.2891ZM69.7148 25V0.390625H74.6719V25H69.7148ZM86.0625 25V0.390625H91.0195V25H86.0625ZM92.918 13.7852V8.93359H94.0781C95.0859 8.93359 95.6719 8.48828 95.8359 7.59766C95.8594 7.45703 95.8711 7.30469 95.8711 7.14062C95.7305 5.99219 95.1328 5.37109 94.0781 5.27734H92.918V0.390625H94.2188C98.6016 0.554687 100.828 2.75781 100.898 7C100.898 10.1406 99.9961 12.168 98.1914 13.082C97.1836 13.5742 95.8594 13.8086 94.2188 13.7852C94.1484 13.7852 93.7148 13.7852 92.918 13.7852ZM102.762 18.1445V6.57812C102.762 5.33594 103.289 4.07031 104.344 2.78125C105.75 1.09375 107.531 0.238281 109.688 0.214844V5.17188C108.727 5.19531 108.094 5.73438 107.789 6.78906C107.742 6.95312 107.719 7.07031 107.719 7.14062V18.1445C107.719 19.1055 108.246 19.7617 109.301 20.1133C109.465 20.1602 109.582 20.1836 109.652 20.1836V25.1758C108.316 25.1758 106.98 24.6953 105.645 23.7344C103.746 22.3281 102.785 20.4648 102.762 18.1445ZM111.586 25.1758V20.1836C111.961 20.1836 112.383 19.9844 112.852 19.5859C113.297 19.1875 113.531 18.707 113.555 18.1445V7.14062C113.555 6.71875 113.355 6.27344 112.957 5.80469C112.582 5.40625 112.125 5.19531 111.586 5.17188V0.214844C113.953 0.214844 115.852 1.23438 117.281 3.27344C118.102 4.44531 118.512 5.54688 118.512 6.57812V18.1445C118.512 20.7461 117.352 22.7383 115.031 24.1211C113.812 24.8242 112.664 25.1758 111.586 25.1758ZM121.324 25V0.390625H126.281V25H121.324ZM128.18 14.9453V10.5508H128.637C130.137 10.5508 131.098 9.94141 131.52 8.72266C131.613 8.41797 131.66 8.10156 131.66 7.77344C131.66 6.53125 131.074 5.69922 129.902 5.27734C129.527 5.13672 129.105 5.06641 128.637 5.06641H128.18V0.390625H128.953C132.023 0.4375 134.18 1.52734 135.422 3.66016C136.008 4.66797 136.301 5.80469 136.301 7.07031C136.277 9.48438 135.48 11.3359 133.91 12.625C135.082 13.375 135.832 14.7344 136.16 16.7031C136.184 16.9375 136.207 17.1602 136.23 17.3711L136.828 25H132.258L131.73 18.7422C131.543 16.8672 131.004 15.707 130.113 15.2617C129.691 15.0742 129.176 14.9688 128.566 14.9453H128.18ZM138.129 5.24219V0.390625H153.352V5.24219H148.219V25H143.262V5.24219H138.129ZM155.004 25L159.539 4.53906H160.066L162.176 14.3828L159.855 25H155.004ZM162.492 22.0117L163.547 17.1602H164.812L161.086 0.390625H165.973L171.773 25H166.852L166.148 22.0117H162.492ZM173.918 25V0.390625H178.875V20.0781H187.137V25H173.918Z" fill="#FED615"/>
</svg>
